<svg width="642" height="138" viewBox="0 0 642 138" fill="none" xmlns="http://www.w3.org/2000/svg">
<g clip-path="url(#clip0_3_218)">
<path d="M75.2621 0.178955C87.776 0.178955 98.7107 2.68283 108.066 7.69056C117.422 12.6983 125.526 20.3888 132.38 30.762L104.491 49.8092C101.213 43.9072 97.1316 39.4957 92.2452 36.5745C87.4184 33.6533 81.7574 32.1927 75.2621 32.1927C64.2976 32.1927 55.2398 36.1571 48.089 44.0861C40.9383 52.015 37.3629 62.0305 37.3629 74.1325C37.3629 84.148 40.1935 92.1962 45.8544 98.277C49.0821 101.71 52.9014 104.162 57.3109 105.637L57.2365 105.673C57.6431 105.786 58.0536 105.893 58.4665 105.999C59.5583 106.315 60.6846 106.573 61.8455 106.775C82.1108 110.904 108.727 107.363 129.849 98.4609C126.769 105.746 122.668 112.154 117.541 117.682C105.266 130.917 88.6102 137.535 67.575 137.535C46.8973 137.535 30.4504 131.901 18.2345 120.633C6.07817 109.366 0 94.2529 0 75.2951C0 64.8623 1.87708 54.966 5.63124 45.6063C9.38541 36.1869 14.7782 27.9301 21.81 20.8359C28.484 14.1589 36.3796 9.06173 45.4969 5.54439C54.6738 1.96743 64.5955 0.178955 75.2621 0.178955ZM136.535 62.8639L136.595 64.345C136.664 68.8317 136.183 80.5198 130.073 90.1961C125.456 97.5109 105.905 99.0784 90.8969 99.1549C91.4987 98.5407 92.0682 97.8914 92.6027 97.204C94.2713 94.9981 95.612 92.4346 96.625 89.5135H66.8599L71.061 62.7757L136.535 62.8639ZM136.759 62.8652C136.736 63.8567 136.697 64.839 136.653 65.8123L136.595 64.345C136.585 63.6862 136.562 63.1828 136.544 62.8639L136.759 62.8652Z" fill="#3844BC"/>
<path d="M141.916 134.225L156.217 43.9071H186.787L184.552 59.288C187.353 53.5649 191.107 49.213 195.815 46.2322C200.522 43.2514 206.005 41.761 212.261 41.761C212.917 41.761 213.662 41.8206 214.496 41.9399C215.33 41.9995 216.642 42.1783 218.43 42.4764L212.083 70.8238C209.997 70.3468 208.12 69.9891 206.452 69.7506C204.783 69.5121 203.174 69.393 201.624 69.393C195.486 69.393 190.63 71.3305 187.055 75.2055C183.539 79.021 181.125 84.9527 179.814 93.0009L173.379 134.225H141.916Z" fill="#3844BC"/>
<path d="M253.647 92.2856C253.647 98.0683 255.405 102.718 258.921 106.236C262.436 109.753 267.084 111.512 272.864 111.512C279.181 111.512 284.425 109.067 288.596 104.179C292.827 99.2308 294.942 93.0606 294.942 85.6681C294.942 80.0643 293.185 75.5335 289.668 72.0758C286.153 68.5585 281.565 66.7997 275.904 66.7997C269.467 66.7997 264.134 69.2142 259.903 74.0431C255.733 78.872 253.647 84.9527 253.647 92.2856ZM288.775 122.153C284.425 127.22 279.568 131.065 274.205 133.689C268.901 136.252 263.181 137.534 257.044 137.534C246.675 137.534 238.154 133.629 231.48 125.82C224.865 118.01 221.557 107.875 221.557 95.4153C221.557 79.7961 226.056 66.8296 235.055 56.516C244.053 46.2025 255.285 41.0457 268.753 41.0457C275.009 41.0457 280.611 42.3572 285.557 44.9803C290.503 47.5438 294.972 51.538 298.965 56.9631L301.021 43.9072H331.233L316.932 134.225H287.255L288.775 122.153Z" fill="#3844BC"/>
<path d="M340.35 134.225L354.652 43.9072H382.63L380.662 58.9305C385.013 52.79 389.601 48.289 394.428 45.4275C399.254 42.5063 404.558 41.0457 410.339 41.0457C417.013 41.0457 422.464 42.4168 426.695 45.1591C430.986 47.9015 434.562 52.3726 437.423 58.5727C442.011 52.4323 446.658 47.9909 451.366 45.2486C456.133 42.4467 461.348 41.0457 467.009 41.0457C476.126 41.0457 483.068 43.5793 487.835 48.6467C492.662 53.6545 495.075 60.9872 495.075 70.645C495.075 73.1488 494.956 75.772 494.718 78.5143C494.479 81.1969 494.093 83.9691 493.556 86.8307L486.047 134.225H456.282L463.791 86.3836C463.91 85.6682 463.999 84.923 464.059 84.148C464.118 83.373 464.148 82.2403 464.148 80.7499C464.148 76.1594 463.164 72.7315 461.198 70.4661C459.233 68.1411 456.313 66.9786 452.439 66.9786C447.255 66.9786 443.231 68.9161 440.372 72.7912C437.571 76.6662 435.485 83.1643 434.115 92.2856L427.858 134.225H398.003L405.512 86.3836C405.571 86.1451 405.631 85.7875 405.69 85.3105C406.108 82.4489 406.316 80.4518 406.316 79.3191C406.316 75.3249 405.303 72.2843 403.277 70.1978C401.311 68.0516 398.45 66.9786 394.696 66.9786C389.572 66.9786 385.638 68.8267 382.898 72.5228C380.156 76.219 378.071 82.8067 376.64 92.2856L370.025 134.225H340.35Z" fill="#3844BC"/>
<path d="M525.645 16.9905C525.645 12.3405 527.283 8.34623 530.561 5.00774C533.898 1.66925 537.92 0 542.628 0C547.574 0 551.685 1.60963 554.962 4.82889C558.241 8.04815 559.879 12.102 559.879 16.9905C559.879 21.8195 558.211 25.9031 554.874 29.2417C551.536 32.5801 547.454 34.2494 542.628 34.2494C537.92 34.2494 533.898 32.5801 530.561 29.2417C527.283 25.8435 525.645 21.7598 525.645 16.9905ZM509.02 134.225L523.231 43.9071H555.321L541.019 134.225H509.02Z" fill="#3844BC"/>
<path d="M564.706 134.225L579.008 43.9071H609.578L607.342 59.288C610.144 53.5649 613.898 49.213 618.606 46.2322C623.312 43.2514 628.795 41.761 635.051 41.761C635.708 41.761 636.453 41.8206 637.287 41.9399C638.121 41.9995 639.432 42.1783 641.22 42.4764L634.874 70.8238C632.788 70.3468 630.911 69.9891 629.243 69.7506C627.573 69.5121 625.964 69.393 624.415 69.393C618.277 69.393 613.421 71.3305 609.846 75.2055C606.329 79.021 603.916 84.9527 602.605 93.0009L596.169 134.225H564.706Z" fill="#3844BC"/>
</g>
<defs>
<clipPath id="clip0_3_218">
<rect width="642" height="138" fill="white"/>
</clipPath>
</defs>
</svg>
